<svg width="16" height="19" viewBox="0 0 16 19" fill="none" xmlns="http://www.w3.org/2000/svg">
<path d="M12.475 1V2.7M8.225 1V2.7M3.975 1V2.7M1 10.35V6.95C1 4.5462 1 3.34345 1.74715 2.59715C2.49345 1.85 3.6962 1.85 6.1 1.85H10.35C12.7538 1.85 13.9565 1.85 14.7028 2.59715C15.45 3.34345 15.45 4.5462 15.45 6.95V10.35C15.45 12.7538 15.45 13.9565 14.7028 14.7028C13.9565 15.45 12.7538 15.45 10.35 15.45H6.1C3.6962 15.45 2.49345 15.45 1.74715 14.7028C1 13.9565 1 12.7538 1 10.35Z"  stroke-linecap="round" stroke-linejoin="round"/>
<path d="M4.825 12.05H8.225M4.825 7.80001H11.625M1 12.9V6.95001C1 4.54621 1 3.34346 1.74715 2.59716C2.49345 1.85001 3.6962 1.85001 6.1 1.85001H10.35C12.7538 1.85001 13.9565 1.85001 14.7028 2.59716C15.45 3.34346 15.45 4.54621 15.45 6.95001V12.9C15.45 15.3038 15.45 16.5066 14.7028 17.2529C13.9565 18 12.7538 18 10.35 18H6.1C3.6962 18 2.49345 18 1.74715 17.2529C1 16.5066 1 15.3038 1 12.9Z"  stroke-linecap="round" stroke-linejoin="round"/>
</svg>
